<svg width="23" height="23" viewBox="0 0 23 23" fill="none" xmlns="http://www.w3.org/2000/svg">
<path d="M5.13389 0C4.51718 0 3.98502 0.173627 3.64724 0.319294C2.97888 0.604539 1.56664 1.61113 0.547874 3.55869C-0.725243 5.99173 -0.0717724 10.9739 5.96099 17.0062C11.1506 22.1966 15.0611 22.9716 16.93 22.9716C17.8757 22.9716 18.7098 22.786 19.4095 22.42C21.3539 21.4024 22.3616 19.9913 22.6504 19.3177C23.3242 17.7418 22.8973 16.1471 21.5642 15.2531C21.336 15.1002 21.1103 14.9484 20.8882 14.7989C19.6514 13.9669 18.4829 13.1808 17.6204 12.6996C17.1996 12.4635 16.6332 12.3273 16.0697 12.3273C15.2453 12.3271 14.4965 12.6049 13.905 13.1301C13.512 13.4796 13.2671 13.8029 13.0883 14.0392C13.0515 14.088 13.0055 14.1488 12.9704 14.1924H12.9652C12.928 14.1924 12.8842 14.1806 12.8346 14.1572C12.1793 13.8474 11.5926 13.4649 10.5389 12.429C9.50232 11.3744 9.11988 10.7881 8.81051 10.1333C8.78187 10.0726 8.77421 10.028 8.77466 9.99779C8.8184 9.96261 8.87928 9.91638 8.92844 9.8794C9.16453 9.70059 9.48788 9.45571 9.83672 9.0638C10.8354 7.93928 10.805 6.31057 10.2694 5.34885C9.78485 4.48072 8.99474 3.30681 8.15817 2.06391C8.01205 1.84654 7.86345 1.62601 7.71418 1.40345C7.10761 0.498559 6.19099 0 5.13389 0V0ZM5.13389 1.57843C5.55398 1.57843 6.03382 1.73154 6.4034 2.28264C7.39872 3.76659 8.35885 5.16463 8.89034 6.11642C9.07005 6.4391 9.24481 7.35324 8.6574 8.01482C8.15005 8.58531 7.70223 8.72512 7.43186 9.14182C7.24674 9.42842 7.035 10.0702 7.38316 10.8077C7.79964 11.6887 8.30789 12.4121 9.42272 13.5452C10.5556 14.6598 11.2783 15.1674 12.1604 15.5843C12.4483 15.7205 12.7219 15.7708 12.9652 15.7708C13.3449 15.7708 13.6513 15.6481 13.8259 15.5356C14.2421 15.2659 14.3826 14.8176 14.9531 14.3103C15.2965 14.0052 15.708 13.9058 16.0697 13.9058C16.4043 13.9058 16.6964 13.9912 16.8513 14.078C17.8028 14.6091 19.2006 15.569 20.685 16.5638C21.7264 17.2624 21.3464 18.3524 21.1998 18.6954C21.0528 19.0384 20.2988 20.1733 18.678 21.0213C18.2322 21.2545 17.6434 21.3932 16.93 21.3932C14.6839 21.3932 11.2045 20.0179 7.07694 15.8903C1.63902 10.4524 0.979012 6.1392 1.94659 4.29018C2.79466 2.6689 3.92933 1.91509 4.27275 1.76875C4.43352 1.69907 4.76026 1.57843 5.13389 1.57843Z" fill="white"/>
</svg>
