<svg width="60" height="62" viewBox="0 0 60 62" fill="none" xmlns="http://www.w3.org/2000/svg">
<ellipse cx="30.0003" cy="31.2428" rx="18.3284" ry="18.6357" fill="#87B940"/>
<path d="M53.6898 31.2432C53.6898 44.5607 43.0741 55.3424 29.9963 55.3424C16.9185 55.3424 6.30273 44.5607 6.30273 31.2432C6.30273 17.9257 16.9185 7.14404 29.9963 7.14404C43.0741 7.14404 53.6898 17.9257 53.6898 31.2432Z" stroke="#87B940"/>
<path opacity="0.4" d="M59.5 31.2431C59.5 47.8212 46.2846 61.2461 30 61.2461C13.7154 61.2461 0.5 47.8212 0.5 31.2431C0.5 14.665 13.7154 1.24011 30 1.24011C46.2846 1.24011 59.5 14.665 59.5 31.2431Z" stroke="#87B940"/>
<rect x="29.2598" y="23.0433" width="1.46628" height="16.3995" fill="white"/>
<rect x="21.9316" y="31.9885" width="1.49086" height="16.129" transform="rotate(-90 21.9316 31.9885)" fill="white"/>
</svg>
