<svg width="60" height="62" viewBox="0 0 60 62" fill="none" xmlns="http://www.w3.org/2000/svg">
<path d="M53.6898 31.3378C53.6898 44.6553 43.0741 55.437 29.9963 55.437C16.9185 55.437 6.30273 44.6553 6.30273 31.3378C6.30273 18.0204 16.9185 7.23865 29.9963 7.23865C43.0741 7.23865 53.6898 18.0204 53.6898 31.3378Z" stroke="#87B940"/>
<path opacity="0.4" d="M59.5 31.3377C59.5 47.9158 46.2846 61.3407 30 61.3407C13.7154 61.3407 0.5 47.9158 0.5 31.3377C0.5 14.7596 13.7154 1.33472 30 1.33472C46.2846 1.33472 59.5 14.7596 59.5 31.3377Z" stroke="#87B940"/>
<rect x="29.2598" y="23.1379" width="1.46628" height="16.3995" fill="white"/>
<rect x="21.9316" y="32.0831" width="1.49086" height="16.129" transform="rotate(-90 21.9316 32.0831)" fill="white"/>
</svg>
