<svg width="27" height="20" viewBox="0 0 27 20" fill="none" xmlns="http://www.w3.org/2000/svg">
<path d="M2.99339 16.984V4.74193L12.554 12.509C12.8307 12.7405 13.1642 12.8494 13.4995 12.8494C13.8349 12.8494 14.1684 12.7405 14.4451 12.509L24.0066 4.71106V16.984H2.99339ZM21.3269 3.01693L13.4995 9.39761L5.64337 3.01693H21.3269ZM25.5047 0H1.49624C0.669705 0 0 0.673657 0 1.5071V18.4938C0 19.3263 0.669705 20 1.49624 20H25.5047C26.333 20 27 19.3263 27 18.4938V1.5071C27 0.673657 26.333 0 25.5047 0V0Z" fill="#87B940"/>
</svg>
