<svg width="20" height="27" viewBox="0 0 20 27" fill="none" xmlns="http://www.w3.org/2000/svg">
<path d="M7.87829 7.77237L9.65744 6.79423C9.93353 6.64292 10.0352 6.29581 9.87904 6.02257L6.5941 0.288121C6.43971 0.0166619 6.08643 -0.0812456 5.80579 0.0736194L1.90238 2.21859C1.30025 2.54879 0.560987 3.07302 0.186812 4.18378C-0.170108 5.24558 0.0578409 6.24953 0.264001 6.90726C0.97784 9.21511 2.68162 12.826 4.82404 16.5712C6.96919 20.3147 9.22332 23.6247 10.8626 25.4234C11.3294 25.9379 12.0814 26.6508 13.193 26.9071C14.3573 27.1697 15.1983 26.8261 15.7977 26.4923L19.7039 24.3465C19.9845 24.1916 20.0826 23.849 19.9246 23.573L16.6433 17.843C16.4889 17.5689 16.1347 17.4728 15.8577 17.6232L14.0758 18.6022C13.7879 18.7607 13.2257 18.6539 12.6745 18.0362C11.8961 17.1693 10.7918 15.3029 9.91446 13.7729C9.03805 12.2421 7.99 10.3446 7.63853 9.24092C7.38969 8.45947 7.58676 7.93257 7.87829 7.77237Z" fill="#87B940"/>
</svg>
