<svg width="13" height="17" viewBox="0 0 13 17" fill="none" xmlns="http://www.w3.org/2000/svg">
<path d="M5.12089 4.89371L6.27734 4.27785C6.45679 4.18258 6.52291 3.96403 6.42137 3.79199L4.28617 0.181407C4.18581 0.0104884 3.95618 -0.0511539 3.77377 0.0463537L1.23655 1.39689C0.845164 1.60479 0.36464 1.93486 0.121426 2.63423C-0.110572 3.30277 0.0376004 3.93489 0.171604 4.34902C0.6356 5.8021 1.74305 8.0756 3.13563 10.4337C4.52997 12.7907 5.99516 14.8748 7.0607 16.0073C7.36412 16.3312 7.85291 16.7801 8.57547 16.9415C9.33227 17.1068 9.87891 16.8905 10.2685 16.6804L12.8075 15.3293C12.9899 15.2318 13.0537 15.016 12.951 14.8423L10.8181 11.2345C10.7178 11.0619 10.4875 11.0014 10.3075 11.0961L9.14927 11.7125C8.96213 11.8123 8.59672 11.745 8.23839 11.3561C7.73249 10.8103 7.01465 9.63516 6.4444 8.67185C5.87473 7.70798 5.1935 6.51324 4.96504 5.81835C4.80329 5.32633 4.93139 4.99458 5.12089 4.89371Z" fill="white"/>
</svg>
