<svg width="24" height="24" viewBox="0 0 24 24" fill="none" xmlns="http://www.w3.org/2000/svg">
<path d="M1.63433 21.722H22.3058L22.3093 19.6175C22.3107 18.4662 21.7305 17.6381 20.6311 17.2231C19.8354 16.9218 15.6867 15.5323 15.645 15.5184L15.0883 15.332V11.9869L15.1118 11.8913C15.9372 8.52295 16.3188 6.84015 15.9768 5.40574C15.6091 3.86648 14.3634 2.2205 11.969 2.21701C9.57694 2.2205 8.33103 3.86648 7.96358 5.40598C7.62152 6.84015 8.00296 8.52295 8.82851 11.8913L8.85181 11.9869V15.332L8.29538 15.5184C8.25344 15.5323 4.1047 16.9218 3.30967 17.2226C2.20987 17.6381 1.62944 18.4662 1.63107 19.6177L1.63433 21.722ZM23.9343 23.3531H0.00559717L4.93419e-06 19.62C-0.00255817 17.7837 0.993558 16.3539 2.73298 15.6971C3.38331 15.4508 6.04544 14.5532 7.22074 14.1583V12.1838C6.4143 8.89203 5.93243 6.89095 6.37701 5.02734C7.02035 2.33304 9.21531 0.589899 11.969 0.585938C14.7251 0.589899 16.92 2.33304 17.5631 5.02734C18.0077 6.89095 17.5261 8.89203 16.7194 12.1838V14.1583C17.8949 14.5532 20.5571 15.4508 21.2081 15.6973C22.9466 16.3539 23.9427 17.7837 23.9404 19.6198L23.9343 23.3531Z" fill="white"/>
</svg>
